<?xml version="1.0" encoding="UTF-8" standalone="no"?>
<svg
   id="Layer_2"
   viewBox="0 0 150 150.00001"
   version="1.1"
   sodipodi:docname="TresoryFavicon.svg"
   inkscape:version="1.2.2 (732a01da63, 2022-12-09)"
   width="150"
   height="150"
   xmlns:inkscape="http://www.inkscape.org/namespaces/inkscape"
   xmlns:sodipodi="http://sodipodi.sourceforge.net/DTD/sodipodi-0.dtd"
   xmlns="http://www.w3.org/2000/svg"
   xmlns:svg="http://www.w3.org/2000/svg">
  <defs
     id="defs28" />
  <sodipodi:namedview
     id="namedview26"
     pagecolor="#505050"
     bordercolor="#ffffff"
     borderopacity="1"
     inkscape:showpageshadow="0"
     inkscape:pageopacity="0"
     inkscape:pagecheckerboard="1"
     inkscape:deskcolor="#505050"
     showgrid="false"
     inkscape:zoom="1.6201538"
     inkscape:cx="328.67249"
     inkscape:cy="67.894787"
     inkscape:window-width="1920"
     inkscape:window-height="1009"
     inkscape:window-x="-8"
     inkscape:window-y="-8"
     inkscape:window-maximized="1"
     inkscape:current-layer="Layer_1-2" />
  <g
     id="Layer_1-2">
    <path
       d="m 87.586924,26.015 c -7.98,0 -28.4,-5.64 -40.67,11.89 -6.04,8.62 -5.27,22.9 2.14,30.23 15.36,15.19 54.059996,9.36 54.059996,29.56 0,20.2 -11.939996,21.5 -29.859996,21.5 -12.59,0 -22.48,-9.39 -29.86,-14.33 l -5,5.76 c 5.49,3.73 8.12,7.99 15.75,9.76 -1.51,6.47 -5.44,13.92 -5.97,20.31 3.14,0.73 3.51,1.09 5.97,2.39 2.82,-5.89 4.45,-13.45 7.17,-19.11 5.75,2.76 15.73,2.39 22.7,2.39 24.450006,0 37.750006,-31.1 18.139996,-45.61 -17.729996,-13.12 -51.579996,-6.16 -51.579996,-30.84 0,-15.42 22.09,-21.53 39.79,-14.7 5.66,2.19 9.36,6.3 13.969996,7.53 l 3.79001,-4.59 c -3.02001,-4.4 -7.70001,-7.23 -13.340006,-8.55 0.67,-8.09 5.809996,-13.96 5.969996,-21.5 -2.809996,-0.65 -3.529996,-1.11 -7.169996,-1.19 -0.59,7.05 -4.41,12.38 -5.97,19.11 z"
       style="fill:#b0643f;fill-rule:evenodd"
       id="path10" />
  </g>
</svg>
